<svg width="174" height="157" viewBox="0 0 174 157" fill="none" xmlns="http://www.w3.org/2000/svg">
<path d="M80.4447 29.1851C84.5835 27.1741 89.4164 27.1741 93.5553 29.1851L149.593 56.4123C157.044 60.0327 160.15 69.008 156.529 76.4593L138.126 114.338C135.616 119.503 130.377 122.782 124.634 122.782H49.366C43.6229 122.782 38.384 119.503 35.8742 114.338L17.4706 76.4593C13.8503 69.008 16.9559 60.0327 24.4071 56.4123L80.4447 29.1851Z" fill="#F4F4F4"/>
<g filter="url(#filter0_i_1_37)">
<circle cx="87.5" cy="37.5" r="37.5" fill="#F4F4F4"/>
</g>
<g filter="url(#filter1_i_1_37)">
<circle cx="134.5" cy="67.5" r="37.5" fill="#F4F4F4"/>
</g>
<g filter="url(#filter2_i_1_37)">
<circle cx="40.5" cy="67.5" r="37.5" fill="#F4F4F4"/>
</g>
<path d="M9.312 140.128C9.01333 140.149 8.704 140.171 8.384 140.192C8.08533 140.192 7.776 140.192 7.456 140.192C7.09333 140.192 6.73067 140.192 6.368 140.192C6.00533 140.192 5.6 140.171 5.152 140.128V146.624C5.152 147.307 4.98133 147.733 4.64 147.904C4.32 148.053 3.91467 148.128 3.424 148.128C3.168 148.128 2.96533 148.107 2.816 148.064C2.66667 148.043 2.53867 147.989 2.432 147.904C2.34667 147.797 2.272 147.648 2.208 147.456C2.16533 147.264 2.13333 146.997 2.112 146.656C2.06933 146.272 2.03733 145.717 2.016 144.992C1.99467 144.245 1.97333 143.285 1.952 142.112C1.952 140.939 1.94133 139.52 1.92 137.856C1.92 136.171 1.92 134.197 1.92 131.936C1.92 131.061 2.02667 130.219 2.24 129.408C2.45333 128.576 2.83733 127.851 3.392 127.232C3.94667 126.592 4.69333 126.08 5.632 125.696C6.592 125.312 7.808 125.12 9.28 125.12C10.3253 125.12 11.3387 125.237 12.32 125.472C13.3227 125.707 14.208 126.112 14.976 126.688C15.744 127.264 16.3627 128.043 16.832 129.024C17.3013 130.005 17.536 131.232 17.536 132.704C17.536 134.667 17.1093 136.192 16.256 137.28C15.424 138.347 14.272 139.104 12.8 139.552L17.088 145.44C17.472 145.952 17.664 146.475 17.664 147.008C17.664 147.435 17.5147 147.765 17.216 148C16.9387 148.256 16.5867 148.384 16.16 148.384C15.6907 148.384 15.2853 148.256 14.944 148C14.6027 147.723 14.2827 147.371 13.984 146.944L9.312 140.128ZM14.336 132.672C14.336 131.2 13.888 130.112 12.992 129.408C12.1173 128.683 10.72 128.32 8.8 128.32C8.096 128.32 7.50933 128.384 7.04 128.512C6.57067 128.619 6.19733 128.832 5.92 129.152C5.64267 129.472 5.44 129.92 5.312 130.496C5.20533 131.051 5.152 131.765 5.152 132.64C5.152 133.259 5.152 133.984 5.152 134.816C5.152 135.648 5.16267 136.405 5.184 137.088C5.67467 137.109 6.21867 137.12 6.816 137.12C7.43467 137.12 8.01067 137.12 8.544 137.12C9.14133 137.12 9.77067 137.088 10.432 137.024C11.1147 136.939 11.744 136.747 12.32 136.448C12.896 136.128 13.376 135.68 13.76 135.104C14.144 134.507 14.336 133.696 14.336 132.672ZM27.8128 142.112C27.0661 142.112 26.2768 142.059 25.4448 141.952C24.6341 141.824 23.7488 141.568 22.7888 141.184C22.9808 142.485 23.5141 143.467 24.3888 144.128C25.2848 144.789 26.5648 145.12 28.2288 145.12C28.8261 145.12 29.3594 145.088 29.8288 145.024C30.3194 144.939 30.7461 144.853 31.1088 144.768C31.4714 144.661 31.7914 144.576 32.0688 144.512C32.3461 144.427 32.6021 144.384 32.8368 144.384C33.1354 144.384 33.4234 144.48 33.7008 144.672C33.9781 144.843 34.1168 145.141 34.1168 145.568C34.1168 146.101 33.8928 146.539 33.4448 146.88C33.0181 147.221 32.4848 147.499 31.8448 147.712C31.2261 147.904 30.5648 148.032 29.8608 148.096C29.1568 148.181 28.5381 148.224 28.0048 148.224C26.7461 148.224 25.5834 148.053 24.5168 147.712C23.4714 147.371 22.5648 146.859 21.7968 146.176C21.0288 145.472 20.4314 144.608 20.0048 143.584C19.5781 142.56 19.3648 141.365 19.3648 140C19.3648 138.677 19.5674 137.504 19.9728 136.48C20.3994 135.456 20.9754 134.592 21.7008 133.888C22.4261 133.184 23.2794 132.651 24.2608 132.288C25.2634 131.925 26.3408 131.744 27.4928 131.744C28.3888 131.744 29.2528 131.861 30.0848 132.096C30.9381 132.331 31.6848 132.683 32.3248 133.152C32.9861 133.621 33.5088 134.219 33.8928 134.944C34.2981 135.648 34.5008 136.48 34.5008 137.44C34.5008 138.293 34.3408 139.019 34.0208 139.616C33.7008 140.213 33.2421 140.693 32.6448 141.056C32.0688 141.419 31.3648 141.685 30.5328 141.856C29.7221 142.027 28.8154 142.112 27.8128 142.112ZM27.5888 134.688C27.0128 134.688 26.4581 134.763 25.9248 134.912C25.3914 135.04 24.9008 135.264 24.4528 135.584C24.0261 135.883 23.6634 136.288 23.3648 136.8C23.0661 137.291 22.8634 137.909 22.7568 138.656C23.5674 139.019 24.3568 139.275 25.1248 139.424C25.8928 139.552 26.7034 139.616 27.5568 139.616C28.8154 139.616 29.7434 139.467 30.3408 139.168C30.9594 138.848 31.2688 138.283 31.2688 137.472C31.2688 136.725 30.9808 136.075 30.4048 135.52C29.8501 134.965 28.9114 134.688 27.5888 134.688ZM44.8418 131.68C45.4604 131.68 46.0791 131.733 46.6978 131.84C47.3378 131.947 47.9138 132.096 48.4258 132.288C48.9378 132.48 49.3538 132.715 49.6738 132.992C49.9938 133.269 50.1538 133.589 50.1538 133.952C50.1538 134.891 49.6204 135.36 48.5538 135.36C48.2978 135.36 48.0524 135.328 47.8178 135.264C47.6044 135.179 47.3484 135.104 47.0498 135.04C46.7511 134.955 46.3778 134.88 45.9298 134.816C45.4818 134.731 44.9271 134.688 44.2658 134.688C42.8578 134.688 41.7698 135.168 41.0018 136.128C40.2338 137.088 39.8498 138.336 39.8498 139.872C39.8498 141.557 40.2338 142.912 41.0018 143.936C41.7911 144.96 42.9004 145.472 44.3298 145.472C45.2258 145.472 45.9511 145.397 46.5058 145.248C47.0604 145.099 47.5084 144.928 47.8498 144.736C48.2124 144.544 48.5004 144.373 48.7138 144.224C48.9484 144.075 49.2044 144 49.4818 144C49.8658 144 50.1644 144.085 50.3778 144.256C50.6124 144.405 50.7298 144.725 50.7298 145.216C50.7298 145.728 50.5271 146.176 50.1218 146.56C49.7378 146.944 49.2471 147.264 48.6498 147.52C48.0524 147.776 47.4018 147.968 46.6978 148.096C46.0151 148.224 45.3858 148.288 44.8098 148.288C42.2284 148.288 40.2018 147.573 38.7298 146.144C37.2578 144.715 36.5218 142.688 36.5218 140.064C36.5218 138.933 36.6924 137.867 37.0338 136.864C37.3964 135.84 37.9298 134.944 38.6338 134.176C39.3378 133.408 40.2018 132.8 41.2258 132.352C42.2711 131.904 43.4764 131.68 44.8418 131.68ZM53.676 146.016C53.6333 145.227 53.5907 144.331 53.548 143.328C53.5267 142.304 53.516 141.184 53.516 139.968C53.516 138.453 53.5267 137.163 53.548 136.096C53.5693 135.008 53.6227 134.123 53.708 133.44C53.8147 132.736 53.9747 132.224 54.188 131.904C54.4013 131.563 54.7 131.392 55.084 131.392C55.4467 131.392 55.7667 131.52 56.044 131.776C56.3213 132.032 56.4813 132.587 56.524 133.44C56.652 135.68 56.716 137.845 56.716 139.936C56.716 141.003 56.6947 142.005 56.652 142.944C56.6093 143.861 56.5667 144.875 56.524 145.984C56.5027 146.496 56.4493 146.891 56.364 147.168C56.3 147.445 56.204 147.659 56.076 147.808C55.948 147.957 55.7987 148.043 55.628 148.064C55.4787 148.107 55.2973 148.128 55.084 148.128C54.7 148.128 54.38 148 54.124 147.744C53.868 147.467 53.7187 146.891 53.676 146.016ZM55.116 125.6C55.6067 125.6 56.0547 125.792 56.46 126.176C56.8867 126.56 57.1 127.019 57.1 127.552C57.1 128.064 56.8867 128.512 56.46 128.896C56.0333 129.259 55.5533 129.44 55.02 129.44C54.572 129.44 54.1453 129.259 53.74 128.896C53.356 128.512 53.164 128.043 53.164 127.488C53.164 126.976 53.356 126.539 53.74 126.176C54.1453 125.792 54.604 125.6 55.116 125.6ZM64.1588 152.608C64.1588 153.013 64.1481 153.397 64.1268 153.76C64.1054 154.144 64.0308 154.485 63.9028 154.784C63.7961 155.083 63.6254 155.317 63.3908 155.488C63.1774 155.68 62.8681 155.776 62.4628 155.776C61.9934 155.776 61.5988 155.605 61.2788 155.264C60.9801 154.944 60.8094 154.368 60.7668 153.536C60.7454 153.003 60.7134 152.352 60.6708 151.584C60.6281 150.816 60.5854 150.005 60.5428 149.152C60.5214 148.299 60.4894 147.445 60.4468 146.592C60.4254 145.739 60.4148 144.949 60.4148 144.224C60.4148 141.728 60.5854 139.669 60.9268 138.048C61.2894 136.427 61.8228 135.136 62.5268 134.176C63.2308 133.216 64.0948 132.544 65.1188 132.16C66.1641 131.776 67.3694 131.584 68.7348 131.584C69.8228 131.584 70.8468 131.755 71.8068 132.096C72.7668 132.416 73.5988 132.928 74.3028 133.632C75.0281 134.315 75.6041 135.211 76.0308 136.32C76.4574 137.408 76.6708 138.72 76.6708 140.256C76.6708 141.536 76.4468 142.667 75.9988 143.648C75.5721 144.629 74.9748 145.461 74.2068 146.144C73.4388 146.805 72.5321 147.317 71.4868 147.68C70.4628 148.021 69.3641 148.192 68.1908 148.192C67.1881 148.192 66.2814 147.989 65.4708 147.584C64.6814 147.157 64.1161 146.699 63.7748 146.208C63.8814 147.403 63.9668 148.512 64.0308 149.536C64.1161 150.56 64.1588 151.584 64.1588 152.608ZM68.5748 134.784C67.8281 134.784 67.1774 134.912 66.6228 135.168C66.0894 135.424 65.6521 135.776 65.3108 136.224C64.9694 136.672 64.7134 137.205 64.5428 137.824C64.3934 138.443 64.3188 139.115 64.3188 139.84C64.3188 140.544 64.3828 141.216 64.5108 141.856C64.6601 142.475 64.8948 143.019 65.2148 143.488C65.5348 143.957 65.9614 144.331 66.4948 144.608C67.0281 144.885 67.6788 145.024 68.4468 145.024C69.0441 145.024 69.6201 144.949 70.1748 144.8C70.7294 144.629 71.2201 144.352 71.6468 143.968C72.0948 143.584 72.4468 143.072 72.7028 142.432C72.9801 141.792 73.1188 140.992 73.1188 140.032C73.1188 139.051 72.9801 138.229 72.7028 137.568C72.4468 136.885 72.0948 136.341 71.6468 135.936C71.2201 135.509 70.7294 135.211 70.1748 135.04C69.6414 134.869 69.1081 134.784 68.5748 134.784ZM87.219 142.112C86.4723 142.112 85.683 142.059 84.851 141.952C84.0403 141.824 83.155 141.568 82.195 141.184C82.387 142.485 82.9203 143.467 83.795 144.128C84.691 144.789 85.971 145.12 87.635 145.12C88.2323 145.12 88.7657 145.088 89.235 145.024C89.7257 144.939 90.1523 144.853 90.515 144.768C90.8777 144.661 91.1977 144.576 91.475 144.512C91.7523 144.427 92.0083 144.384 92.243 144.384C92.5417 144.384 92.8297 144.48 93.107 144.672C93.3843 144.843 93.523 145.141 93.523 145.568C93.523 146.101 93.299 146.539 92.851 146.88C92.4243 147.221 91.891 147.499 91.251 147.712C90.6323 147.904 89.971 148.032 89.267 148.096C88.563 148.181 87.9443 148.224 87.411 148.224C86.1523 148.224 84.9897 148.053 83.923 147.712C82.8777 147.371 81.971 146.859 81.203 146.176C80.435 145.472 79.8377 144.608 79.411 143.584C78.9843 142.56 78.771 141.365 78.771 140C78.771 138.677 78.9737 137.504 79.379 136.48C79.8057 135.456 80.3817 134.592 81.107 133.888C81.8323 133.184 82.6857 132.651 83.667 132.288C84.6697 131.925 85.747 131.744 86.899 131.744C87.795 131.744 88.659 131.861 89.491 132.096C90.3443 132.331 91.091 132.683 91.731 133.152C92.3923 133.621 92.915 134.219 93.299 134.944C93.7043 135.648 93.907 136.48 93.907 137.44C93.907 138.293 93.747 139.019 93.427 139.616C93.107 140.213 92.6483 140.693 92.051 141.056C91.475 141.419 90.771 141.685 89.939 141.856C89.1283 142.027 88.2217 142.112 87.219 142.112ZM86.995 134.688C86.419 134.688 85.8643 134.763 85.331 134.912C84.7977 135.04 84.307 135.264 83.859 135.584C83.4323 135.883 83.0697 136.288 82.771 136.8C82.4723 137.291 82.2697 137.909 82.163 138.656C82.9737 139.019 83.763 139.275 84.531 139.424C85.299 139.552 86.1097 139.616 86.963 139.616C88.2217 139.616 89.1497 139.467 89.747 139.168C90.3657 138.848 90.675 138.283 90.675 137.472C90.675 136.725 90.387 136.075 89.811 135.52C89.2563 134.965 88.3177 134.688 86.995 134.688ZM102.584 131.296C103.032 131.296 103.597 131.339 104.28 131.424C104.963 131.488 105.613 131.627 106.232 131.84C106.851 132.032 107.384 132.309 107.832 132.672C108.28 133.035 108.504 133.493 108.504 134.048C108.504 134.368 108.408 134.645 108.216 134.88C108.045 135.115 107.768 135.232 107.384 135.232C107.107 135.232 106.787 135.189 106.424 135.104C106.083 135.019 105.699 134.923 105.272 134.816C104.867 134.688 104.419 134.581 103.928 134.496C103.459 134.411 102.957 134.368 102.424 134.368C101.528 134.368 100.792 134.507 100.216 134.784C99.6613 135.061 99.384 135.499 99.384 136.096C99.384 136.437 99.48 136.725 99.672 136.96C99.8853 137.195 100.163 137.408 100.504 137.6C100.867 137.771 101.283 137.92 101.752 138.048C102.243 138.176 102.755 138.304 103.288 138.432C103.949 138.603 104.6 138.795 105.24 139.008C105.901 139.221 106.488 139.52 107 139.904C107.512 140.267 107.928 140.736 108.248 141.312C108.568 141.867 108.728 142.56 108.728 143.392C108.728 144.971 108.131 146.229 106.936 147.168C105.741 148.085 103.981 148.544 101.656 148.544C101.144 148.544 100.536 148.501 99.832 148.416C99.128 148.352 98.4667 148.213 97.848 148C97.2293 147.808 96.696 147.531 96.248 147.168C95.8213 146.784 95.608 146.283 95.608 145.664C95.608 145.237 95.704 144.917 95.896 144.704C96.1093 144.469 96.3653 144.352 96.664 144.352C96.8987 144.352 97.144 144.427 97.4 144.576C97.656 144.725 97.9653 144.885 98.328 145.056C98.6907 145.227 99.128 145.387 99.64 145.536C100.152 145.685 100.781 145.76 101.528 145.76C101.805 145.76 102.168 145.749 102.616 145.728C103.064 145.685 103.501 145.589 103.928 145.44C104.376 145.291 104.749 145.088 105.048 144.832C105.368 144.555 105.528 144.171 105.528 143.68C105.528 143.296 105.421 142.976 105.208 142.72C104.995 142.443 104.707 142.208 104.344 142.016C103.981 141.824 103.555 141.664 103.064 141.536C102.595 141.387 102.093 141.237 101.56 141.088C100.941 140.917 100.312 140.725 99.672 140.512C99.0533 140.299 98.488 140.021 97.976 139.68C97.464 139.339 97.048 138.912 96.728 138.4C96.408 137.867 96.248 137.216 96.248 136.448C96.248 135.723 96.3973 135.051 96.696 134.432C96.9947 133.792 97.4213 133.237 97.976 132.768C98.5307 132.299 99.192 131.936 99.96 131.68C100.749 131.424 101.624 131.296 102.584 131.296ZM131.734 146.368C131.521 145.856 131.286 145.269 131.03 144.608C130.796 143.925 130.54 143.211 130.262 142.464C129.622 142.485 128.95 142.507 128.246 142.528C127.542 142.528 126.828 142.528 126.102 142.528C125.185 142.528 124.353 142.528 123.606 142.528C122.86 142.528 122.177 142.517 121.558 142.496C121.302 143.243 121.057 143.947 120.822 144.608C120.588 145.269 120.364 145.856 120.15 146.368C119.724 147.456 119.105 148 118.294 148C117.996 148 117.708 147.904 117.43 147.712C117.174 147.52 117.046 147.243 117.046 146.88C117.046 146.517 117.11 146.048 117.238 145.472C117.366 144.875 117.526 144.245 117.718 143.584C117.932 142.901 118.156 142.208 118.39 141.504C118.625 140.779 118.849 140.107 119.062 139.488C119.276 138.805 119.574 137.941 119.958 136.896C120.364 135.829 120.79 134.72 121.238 133.568C121.686 132.416 122.134 131.285 122.582 130.176C123.03 129.045 123.436 128.064 123.798 127.232C123.884 127.019 123.99 126.784 124.118 126.528C124.246 126.251 124.396 125.995 124.566 125.76C124.758 125.525 124.961 125.323 125.174 125.152C125.409 124.981 125.665 124.896 125.942 124.896C126.22 124.896 126.476 124.992 126.71 125.184C126.945 125.355 127.148 125.568 127.318 125.824C127.51 126.08 127.67 126.347 127.798 126.624C127.948 126.901 128.065 127.147 128.15 127.36C128.492 128.213 128.876 129.195 129.302 130.304C129.75 131.413 130.188 132.533 130.614 133.664C131.062 134.795 131.478 135.872 131.862 136.896C132.246 137.92 132.556 138.784 132.79 139.488C132.982 140.107 133.196 140.768 133.43 141.472C133.686 142.176 133.921 142.869 134.134 143.552C134.348 144.235 134.518 144.875 134.646 145.472C134.796 146.048 134.87 146.517 134.87 146.88C134.87 147.243 134.732 147.52 134.454 147.712C134.198 147.904 133.921 148 133.622 148C133.238 148 132.886 147.872 132.566 147.616C132.246 147.339 131.969 146.923 131.734 146.368ZM126.07 139.328C126.582 139.328 127.094 139.339 127.606 139.36C128.118 139.36 128.63 139.371 129.142 139.392C128.886 138.645 128.63 137.899 128.374 137.152C128.118 136.405 127.873 135.691 127.638 135.008C127.425 134.325 127.222 133.696 127.03 133.12C126.86 132.523 126.71 132 126.582 131.552C126.497 131.275 126.401 131.051 126.294 130.88C126.188 130.709 126.049 130.624 125.878 130.624C125.708 130.624 125.569 130.72 125.462 130.912C125.356 131.083 125.26 131.307 125.174 131.584C124.918 132.459 124.556 133.6 124.086 135.008C123.638 136.395 123.158 137.856 122.646 139.392C123.222 139.371 123.798 139.36 124.374 139.36C124.95 139.339 125.516 139.328 126.07 139.328ZM140.94 152.608C140.94 153.013 140.929 153.397 140.908 153.76C140.887 154.144 140.812 154.485 140.684 154.784C140.577 155.083 140.407 155.317 140.172 155.488C139.959 155.68 139.649 155.776 139.244 155.776C138.775 155.776 138.38 155.605 138.06 155.264C137.761 154.944 137.591 154.368 137.548 153.536C137.527 153.003 137.495 152.352 137.452 151.584C137.409 150.816 137.367 150.005 137.324 149.152C137.303 148.299 137.271 147.445 137.228 146.592C137.207 145.739 137.196 144.949 137.196 144.224C137.196 141.728 137.367 139.669 137.708 138.048C138.071 136.427 138.604 135.136 139.308 134.176C140.012 133.216 140.876 132.544 141.9 132.16C142.945 131.776 144.151 131.584 145.516 131.584C146.604 131.584 147.628 131.755 148.588 132.096C149.548 132.416 150.38 132.928 151.084 133.632C151.809 134.315 152.385 135.211 152.812 136.32C153.239 137.408 153.452 138.72 153.452 140.256C153.452 141.536 153.228 142.667 152.78 143.648C152.353 144.629 151.756 145.461 150.988 146.144C150.22 146.805 149.313 147.317 148.268 147.68C147.244 148.021 146.145 148.192 144.972 148.192C143.969 148.192 143.063 147.989 142.252 147.584C141.463 147.157 140.897 146.699 140.556 146.208C140.663 147.403 140.748 148.512 140.812 149.536C140.897 150.56 140.94 151.584 140.94 152.608ZM145.356 134.784C144.609 134.784 143.959 134.912 143.404 135.168C142.871 135.424 142.433 135.776 142.092 136.224C141.751 136.672 141.495 137.205 141.324 137.824C141.175 138.443 141.1 139.115 141.1 139.84C141.1 140.544 141.164 141.216 141.292 141.856C141.441 142.475 141.676 143.019 141.996 143.488C142.316 143.957 142.743 144.331 143.276 144.608C143.809 144.885 144.46 145.024 145.228 145.024C145.825 145.024 146.401 144.949 146.956 144.8C147.511 144.629 148.001 144.352 148.428 143.968C148.876 143.584 149.228 143.072 149.484 142.432C149.761 141.792 149.9 140.992 149.9 140.032C149.9 139.051 149.761 138.229 149.484 137.568C149.228 136.885 148.876 136.341 148.428 135.936C148.001 135.509 147.511 135.211 146.956 135.04C146.423 134.869 145.889 134.784 145.356 134.784ZM159.784 152.608C159.784 153.013 159.773 153.397 159.752 153.76C159.73 154.144 159.656 154.485 159.528 154.784C159.421 155.083 159.25 155.317 159.016 155.488C158.802 155.68 158.493 155.776 158.088 155.776C157.618 155.776 157.224 155.605 156.904 155.264C156.605 154.944 156.434 154.368 156.392 153.536C156.37 153.003 156.338 152.352 156.296 151.584C156.253 150.816 156.21 150.005 156.168 149.152C156.146 148.299 156.114 147.445 156.072 146.592C156.05 145.739 156.04 144.949 156.04 144.224C156.04 141.728 156.21 139.669 156.552 138.048C156.914 136.427 157.448 135.136 158.152 134.176C158.856 133.216 159.72 132.544 160.744 132.16C161.789 131.776 162.994 131.584 164.36 131.584C165.448 131.584 166.472 131.755 167.432 132.096C168.392 132.416 169.224 132.928 169.928 133.632C170.653 134.315 171.229 135.211 171.656 136.32C172.082 137.408 172.296 138.72 172.296 140.256C172.296 141.536 172.072 142.667 171.624 143.648C171.197 144.629 170.6 145.461 169.832 146.144C169.064 146.805 168.157 147.317 167.112 147.68C166.088 148.021 164.989 148.192 163.816 148.192C162.813 148.192 161.906 147.989 161.096 147.584C160.306 147.157 159.741 146.699 159.4 146.208C159.506 147.403 159.592 148.512 159.656 149.536C159.741 150.56 159.784 151.584 159.784 152.608ZM164.2 134.784C163.453 134.784 162.802 134.912 162.248 135.168C161.714 135.424 161.277 135.776 160.936 136.224C160.594 136.672 160.338 137.205 160.168 137.824C160.018 138.443 159.944 139.115 159.944 139.84C159.944 140.544 160.008 141.216 160.136 141.856C160.285 142.475 160.52 143.019 160.84 143.488C161.16 143.957 161.586 144.331 162.12 144.608C162.653 144.885 163.304 145.024 164.072 145.024C164.669 145.024 165.245 144.949 165.8 144.8C166.354 144.629 166.845 144.352 167.272 143.968C167.72 143.584 168.072 143.072 168.328 142.432C168.605 141.792 168.744 140.992 168.744 140.032C168.744 139.051 168.605 138.229 168.328 137.568C168.072 136.885 167.72 136.341 167.272 135.936C166.845 135.509 166.354 135.211 165.8 135.04C165.266 134.869 164.733 134.784 164.2 134.784Z" fill="#F4F4F4"/>
<defs>
<filter id="filter0_i_1_37" x="50" y="0" width="75" height="79" filterUnits="userSpaceOnUse" color-interpolation-filters="sRGB">
<feFlood flood-opacity="0" result="BackgroundImageFix"/>
<feBlend mode="normal" in="SourceGraphic" in2="BackgroundImageFix" result="shape"/>
<feColorMatrix in="SourceAlpha" type="matrix" values="0 0 0 0 0 0 0 0 0 0 0 0 0 0 0 0 0 0 127 0" result="hardAlpha"/>
<feOffset dy="5"/>
<feGaussianBlur stdDeviation="2"/>
<feComposite in2="hardAlpha" operator="arithmetic" k2="-1" k3="1"/>
<feColorMatrix type="matrix" values="0 0 0 0 0 0 0 0 0 0 0 0 0 0 0 0 0 0 0.1 0"/>
<feBlend mode="normal" in2="shape" result="effect1_innerShadow_1_37"/>
</filter>
<filter id="filter1_i_1_37" x="93" y="30" width="79" height="79" filterUnits="userSpaceOnUse" color-interpolation-filters="sRGB">
<feFlood flood-opacity="0" result="BackgroundImageFix"/>
<feBlend mode="normal" in="SourceGraphic" in2="BackgroundImageFix" result="shape"/>
<feColorMatrix in="SourceAlpha" type="matrix" values="0 0 0 0 0 0 0 0 0 0 0 0 0 0 0 0 0 0 127 0" result="hardAlpha"/>
<feOffset dx="-5" dy="5"/>
<feGaussianBlur stdDeviation="2"/>
<feComposite in2="hardAlpha" operator="arithmetic" k2="-1" k3="1"/>
<feColorMatrix type="matrix" values="0 0 0 0 0 0 0 0 0 0 0 0 0 0 0 0 0 0 0.1 0"/>
<feBlend mode="normal" in2="shape" result="effect1_innerShadow_1_37"/>
</filter>
<filter id="filter2_i_1_37" x="3" y="30" width="79" height="79" filterUnits="userSpaceOnUse" color-interpolation-filters="sRGB">
<feFlood flood-opacity="0" result="BackgroundImageFix"/>
<feBlend mode="normal" in="SourceGraphic" in2="BackgroundImageFix" result="shape"/>
<feColorMatrix in="SourceAlpha" type="matrix" values="0 0 0 0 0 0 0 0 0 0 0 0 0 0 0 0 0 0 127 0" result="hardAlpha"/>
<feOffset dx="5" dy="5"/>
<feGaussianBlur stdDeviation="2"/>
<feComposite in2="hardAlpha" operator="arithmetic" k2="-1" k3="1"/>
<feColorMatrix type="matrix" values="0 0 0 0 0 0 0 0 0 0 0 0 0 0 0 0 0 0 0.1 0"/>
<feBlend mode="normal" in2="shape" result="effect1_innerShadow_1_37"/>
</filter>
</defs>
</svg>
